<?xml version="1.0" encoding="iso-8859-1"?>
<!-- Generator: Adobe Illustrator 19.0.0, SVG Export Plug-In . SVG Version: 6.00 Build 0)  -->
<svg version="1.1" id="Capa_1" xmlns="http://www.w3.org/2000/svg" xmlns:xlink="http://www.w3.org/1999/xlink" x="0px" y="0px"
	 viewBox="0 0 480 480" style="enable-background:new 0 0 480 480;" xml:space="preserve">
<g>
	<path style="fill:#ABD4D8;" d="M144,104c0-2.248,0.944-4.392,2.6-5.904c1.664-1.512,3.912-2.256,6.128-2.064L240,103.968
		l87.272-7.936c2.216-0.2,4.464,0.544,6.128,2.064c1.656,1.512,2.6,3.656,2.6,5.904v52.688l8,8l8-8V104c0-30.872-25.128-56-56-56
		h-5.464c-3.088,0-5.896-1.776-7.224-4.56C275.392,26.768,258.384,16,240,16h-47.328c1.168,6.944,3.864,13.544,7.968,19.424
		c1.704,2.448,1.904,5.632,0.528,8.28c-1.376,2.64-4.104,4.296-7.088,4.296H184c-30.872,0-56,25.128-56,56v52.688l8,8l8-8V104z"/>
	<path style="fill:#ABD4D8;" d="M352,223.6c9.12-1.856,16-9.944,16-19.6s-6.88-17.744-16-19.6V223.6z"/>
</g>
<path style="fill:#F08843;" d="M268.688,328L336,260.688V232v-52.688l-13.656-13.656C320.848,164.16,320,162.128,320,160v-47.24
	l-79.272,7.208c-0.488,0.048-0.968,0.048-1.456,0L160,112.76V160c0,2.128-0.84,4.16-2.344,5.656L144,179.312V232v28.688L211.312,328
	H268.688z M248,272h-16v-16h16V272z M274.344,181.656l11.312-11.312l24,24c3.128,3.128,3.128,8.184,0,11.312l-24,24l-11.312-11.312
	L292.688,200L274.344,181.656z M264,256h16v16h-16V256z M248.848,164.424l14.312,7.16l-32,64l-14.312-7.16L248.848,164.424z
	 M170.344,205.656c-3.128-3.128-3.128-8.184,0-11.312l24-24l11.312,11.312L187.312,200l18.344,18.344l-11.312,11.312
	L170.344,205.656z M200,256h16v16h-16V256z"/>
<g>
	<path style="fill:#ABD4D8;" d="M112,204c0,9.656,6.88,17.744,16,19.6v-39.2C118.88,186.256,112,194.344,112,204z"/>
	<path style="fill:#ABD4D8;" d="M244.648,406.504c-1.392,1-3.016,1.496-4.648,1.496c-1.632,0-3.256-0.496-4.648-1.496
		l-52.408-37.432L16,437.368V464h320v-78.992l-38.944-15.928L244.648,406.504z M248,440h-16v-16h16V440z"/>
	<path style="fill:#ABD4D8;" d="M400,368c0,4.424-3.576,8-8,8h-40v3.632V464h112V328h-64V368z M368,392h16v16h-16V392z M400,440h-32
		v-16h32V440z M448,440h-32v-16h32V440z M448,408h-16v-16h16V408z M416,360h32v16h-32V360z M416,408h-16v-16h16V408z"/>
</g>
<polygon style="fill:#668894;" points="384,339.312 363.312,360 384,360 "/>
<path style="fill:#F08843;" d="M208,344c-2.128,0-4.16-0.84-5.656-2.344L192,331.312v24.568l48,34.288l48-34.288v-24.568
	l-10.344,10.344C276.16,343.16,274.128,344,272,344H208z"/>
<g>
	<rect style="fill:#203C51;" width="16" height="16"/>
	<rect x="32" style="fill:#203C51;" width="16" height="16"/>
	<rect x="48" y="64" style="fill:#203C51;" width="16" height="16"/>
	<rect x="80" y="64" style="fill:#203C51;" width="16" height="16"/>
	<rect x="64" y="32" style="fill:#203C51;" width="24" height="16"/>
	<rect x="64" style="fill:#203C51;" width="40" height="16"/>
	<rect y="32" style="fill:#203C51;" width="48" height="16"/>
	<rect y="64" style="fill:#203C51;" width="32" height="16"/>
	<rect x="56" y="208" style="fill:#203C51;" width="16" height="16"/>
	<rect x="40" y="144" style="fill:#203C51;" width="16" height="16"/>
	<rect x="8" y="144" style="fill:#203C51;" width="16" height="16"/>
	<rect x="16" y="176" style="fill:#203C51;" width="24" height="16"/>
	<rect y="208" style="fill:#203C51;" width="40" height="16"/>
	<rect x="56" y="176" style="fill:#203C51;" width="24" height="16"/>
	<rect x="72" y="144" style="fill:#203C51;" width="24" height="16"/>
	<rect x="376" style="fill:#203C51;" width="16" height="16"/>
	<rect x="408" style="fill:#203C51;" width="16" height="16"/>
	<rect x="432" y="64" style="fill:#203C51;" width="16" height="16"/>
	<rect x="464" y="64" style="fill:#203C51;" width="16" height="16"/>
	<rect x="440" y="32" style="fill:#203C51;" width="24" height="16"/>
	<rect x="440" style="fill:#203C51;" width="40" height="16"/>
	<rect x="376" y="32" style="fill:#203C51;" width="48" height="16"/>
	<rect x="392" y="64" style="fill:#203C51;" width="24" height="16"/>
	<rect x="464" y="208" style="fill:#203C51;" width="16" height="16"/>
	<rect x="424" y="144" style="fill:#203C51;" width="16" height="16"/>
	<rect x="392" y="144" style="fill:#203C51;" width="16" height="16"/>
	<rect x="400" y="176" style="fill:#203C51;" width="24" height="16"/>
	<rect x="408" y="208" style="fill:#203C51;" width="40" height="16"/>
	<rect x="440" y="176" style="fill:#203C51;" width="24" height="16"/>
	<rect x="456" y="144" style="fill:#203C51;" width="24" height="16"/>
	<rect y="296" style="fill:#203C51;" width="16" height="16"/>
	<rect x="32" y="296" style="fill:#203C51;" width="16" height="16"/>
	<rect x="48" y="360" style="fill:#203C51;" width="16" height="16"/>
	<rect x="104" y="328" style="fill:#203C51;" width="16" height="16"/>
	<rect x="64" y="328" style="fill:#203C51;" width="24" height="16"/>
	<rect x="64" y="296" style="fill:#203C51;" width="40" height="16"/>
	<rect y="328" style="fill:#203C51;" width="48" height="16"/>
	<rect y="360" style="fill:#203C51;" width="32" height="16"/>
	<path style="fill:#203C51;" d="M472,312h-80c-2.216,0-4.216,0.904-5.664,2.352l-47.976,47.976c-1.392,1.384-2.232,3.296-2.304,5.4
		L304,354.624v-39.312l45.656-45.656C351.16,268.16,352,266.128,352,264v-24.408c17.952-2.016,32-17.112,32-35.592
		c0-15.312-9.656-28.336-23.16-33.528l4.816-4.816C367.16,164.16,368,162.128,368,160v-56c0-39.704-32.296-72-72-72h-0.64
		C284,12.408,262.808,0,240,0h-56c-4.424,0-8,3.576-8,8c0,8.336,1.6,16.48,4.704,24.08C142.536,33.808,112,65.408,112,104v56
		c0,2.128,0.84,4.16,2.344,5.656l4.816,4.816C105.656,175.664,96,188.688,96,204c0,18.48,14.048,33.576,32,35.592V264
		c0,2.128,0.84,4.16,2.344,5.656L176,315.312v39.312L4.968,424.592C1.96,425.832,0,428.752,0,432v40c0,4.424,3.576,8,8,8h336h128
		c4.424,0,8-3.576,8-8V320C480,315.576,476.424,312,472,312z M384,339.312V360h-20.688L384,339.312z M368,204
		c0,9.656-6.88,17.744-16,19.6v-39.2C361.12,186.256,368,194.344,368,204z M128,104c0-30.872,25.128-56,56-56h10.08
		c2.984,0,5.712-1.656,7.096-4.296c1.376-2.648,1.176-5.84-0.528-8.28c-4.104-5.872-6.8-12.48-7.968-19.424H240
		c18.384,0,35.392,10.768,43.312,27.44c1.328,2.784,4.144,4.56,7.224,4.56H296c30.872,0,56,25.128,56,56v52.688l-8,8l-8-8V104
		c0-2.248-0.944-4.392-2.6-5.904c-1.664-1.512-3.904-2.264-6.128-2.064L240,103.968l-87.272-7.936
		c-2.208-0.192-4.464,0.544-6.128,2.064c-1.656,1.512-2.6,3.656-2.6,5.904v52.688l-8,8l-8-8V104z M112,204
		c0-9.656,6.88-17.744,16-19.6v39.2C118.88,221.744,112,213.656,112,204z M144,232v-52.688l13.656-13.656
		C159.16,164.16,160,162.128,160,160v-47.24l79.272,7.208c0.488,0.048,0.968,0.048,1.456,0L320,112.76V160
		c0,2.128,0.84,4.16,2.344,5.656L336,179.312V232v28.688L268.688,328h-57.376L144,260.688V232z M202.344,341.656
		C203.848,343.16,205.872,344,208,344h64c2.128,0,4.16-0.84,5.656-2.344L288,331.312v24.568l-48,34.288l-48-34.288v-24.568
		L202.344,341.656z M16,437.368l166.944-68.288l52.408,37.432c1.392,0.992,3.016,1.488,4.648,1.488c1.632,0,3.256-0.496,4.648-1.496
		l52.408-37.432L336,385.008V464H16V437.368z M464,464H352v-84.368V376h40c4.424,0,8-3.576,8-8v-40h64V464z"/>
	<rect x="368" y="392" style="fill:#203C51;" width="16" height="16"/>
	<rect x="400" y="392" style="fill:#203C51;" width="16" height="16"/>
	<rect x="432" y="392" style="fill:#203C51;" width="16" height="16"/>
	<rect x="368" y="424" style="fill:#203C51;" width="32" height="16"/>
	<rect x="416" y="424" style="fill:#203C51;" width="32" height="16"/>
	<rect x="416" y="360" style="fill:#203C51;" width="32" height="16"/>
	<rect x="232" y="424" style="fill:#203C51;" width="16" height="16"/>
	<path style="fill:#203C51;" d="M187.312,200l18.344-18.344l-11.312-11.312l-24,24c-3.128,3.128-3.128,8.184,0,11.312l24,24
		l11.312-11.312L187.312,200z"/>
	<path style="fill:#203C51;" d="M285.656,229.656l24-24c3.128-3.128,3.128-8.184,0-11.312l-24-24l-11.312,11.312L292.688,200
		l-18.344,18.344L285.656,229.656z"/>
	
		<rect x="204.211" y="191.997" transform="matrix(-0.4472 0.8944 -0.8944 -0.4472 526.193 74.7885)" style="fill:#203C51;" width="71.55" height="16"/>
	<rect x="232" y="256" style="fill:#203C51;" width="16" height="16"/>
	<rect x="264" y="256" style="fill:#203C51;" width="16" height="16"/>
	<rect x="200" y="256" style="fill:#203C51;" width="16" height="16"/>
</g>
<g>
</g>
<g>
</g>
<g>
</g>
<g>
</g>
<g>
</g>
<g>
</g>
<g>
</g>
<g>
</g>
<g>
</g>
<g>
</g>
<g>
</g>
<g>
</g>
<g>
</g>
<g>
</g>
<g>
</g>
</svg>
